<svg xmlns="http://www.w3.org/2000/svg" viewBox="0 0 550.54 559.23"><defs><style>.cls-1{fill:#ec008c;}</style></defs><title>Asset 27</title><g id="Layer_2" data-name="Layer 2"><g id="Layer_1-2" data-name="Layer 1"><path class="cls-1" d="M469.22,77.6C417.58,26,346.44,0,273.41,0S130.48,29.68,78.84,81.32,0,207.82,0,280.85a274.28,274.28,0,0,0,12.39,81.83c3.15,10.08,18.39,51.52,32,73C76.34,486.14,138.63,532.51,199,549a274.69,274.69,0,0,0,74.4,10.19c89.36,0,147.89-32.16,199.54-83.8s77.59-116.58,77.59-189.61S520.86,129.24,469.22,77.6ZM386.4,489.27c-33.79,18-72.11,28.67-113,28.67-130.81,0-237.23-106.42-237.23-237.23,0-29.59,7.61-72.62,18.91-98.2C92.43,98,153.93,56.29,214.58,43.78c19-3.92,45.34-5.93,65.64-5.93,58.86,0,114.13,24.24,155.64,59.86,50.74,43.54,76,111.05,74.79,183C508.46,406.94,422.05,470.33,386.4,489.27Z"/><path class="cls-1" d="M204.31,312.26a31.8,31.8,0,0,0,31.8-31.8c0-17.56,0-110.5-31.8-110.5s-31.8,92.94-31.8,110.5A31.8,31.8,0,0,0,204.31,312.26Z"/><path class="cls-1" d="M347.23,312.26A31.79,31.79,0,0,0,379,280.46c0-17.56,0-110.5-31.79-110.5s-31.8,92.94-31.8,110.5A31.8,31.8,0,0,0,347.23,312.26Z"/><path class="cls-1" d="M363.07,365c-23.91,14.47-53.43,19.26-85.37,19.26h0c-31.95,0-61.47-4.79-85.38-19.26-20.2-12.23-36.39,2.8-21.37,21.42,21.19,26.28,60.2,49.31,106.75,49.31s85.55-23,106.75-49.31C399.47,367.78,383.27,352.75,363.07,365Z"/></g></g></svg>