<svg xmlns="http://www.w3.org/2000/svg" viewBox="0 0 559.8 567.37"><defs><style>.cls-1{fill:#7f3f98;}</style></defs><title>Asset 20</title><g id="Layer_2" data-name="Layer 2"><g id="Layer_1-2" data-name="Layer 1"><path class="cls-1" d="M474.59,81.43a278.18,278.18,0,0,0-462,279.78c3.2,10.25,27.52,61.36,32.55,74.26,17.83,45.65,14.6,81.6,36.69,105.16,39.37,42,77.51,2.77,120.52,16.38A279.41,279.41,0,0,0,278,567.37c90.86,0,158-28.92,210.46-81.42S559.8,357.32,559.8,283.06,527.1,133.94,474.59,81.43Zm-52.47,348c-11.7,24.18,9.07,43.88-27.67,63.4-34.82,18.5-74.31,29.55-116.44,29.55-134.82,0-244.49-109.68-244.49-244.49a243.1,243.1,0,0,1,15.85-86.63c14-36.85,38.08,19.16,80.85-4.05C161.43,170.27,129,80.92,217.38,41c18.24-8.24,46.72-13.4,67.65-13.4,60.66,0,117.61,25,160.4,61.69,52.29,44.87,77.07,114.44,77.07,188.6,0,32.59-2.77,65.49-18,92.18C478.44,415.57,441.81,388.75,422.12,429.44Z"/><path class="cls-1" d="M207.75,309.94a32.33,32.33,0,0,0,32.33-32.33c0-17.85,0-112.36-32.33-112.36s-32.33,94.51-32.33,112.36A32.32,32.32,0,0,0,207.75,309.94Z"/><path class="cls-1" d="M353.07,309.94a32.33,32.33,0,0,0,32.33-32.33c0-17.85,0-112.36-32.33-112.36s-32.33,94.51-32.33,112.36A32.32,32.32,0,0,0,353.07,309.94Z"/><path class="cls-1" d="M369.17,363.55c-24.3,14.72-54.32,19.59-86.8,19.59h0c-32.49,0-62.5-4.87-86.81-19.59-20.54-12.43-37,2.85-21.74,21.78,21.55,26.72,61.22,50.14,108.55,50.14s87-23.42,108.54-50.14C406.18,366.4,389.71,351.12,369.17,363.55Z"/></g></g></svg>