<svg xmlns="http://www.w3.org/2000/svg" viewBox="0 0 564.7 630.8"><defs><style>.cls-1{fill:#7f3f98;}</style></defs><title>Asset 25</title><g id="Layer_2" data-name="Layer 2"><g id="Layer_1-2" data-name="Layer 1"><path class="cls-1" d="M478.75,82.14A280.45,280.45,0,0,0,0,280.44,282.76,282.76,0,0,0,7.19,344c1.59,6.87,5.52,20.36,5.52,20.36,10,25.84,4.13,78.26,11.47,84.06s11.49-3.49,19.26,0c11.8,6.51,11.37,17.94,14.19,48.7,4.55,49.78,9.62,107.49,24.93,123.81,39.71,42.37,78.19-66.42,121.57-52.69a281.8,281.8,0,0,0,76.31,10.45,415.78,415.78,0,0,0,55-3.85c32.73-4.35,33.8,14,55.42,10.48,32.85-5.33,30.81-41,66.35-64.84,12.84-8.61,24.39-19.12,35.56-30.29,53-53,72-129.76,72-204.67S531.71,135.11,478.75,82.14Zm-77.2,342.43c-15.56,41,8.79,68.87-31.1,88.53-26.91,13.26-58.26,16.95-90,16.95-137.68,0-249.69-112-249.69-249.69a252.44,252.44,0,0,1,10.36-71.24c19.3-65.79,44.23,67.73,87.9,44,31.88-17.31-.75-173.94,89.51-214.69,18.64-8.42,47.72-13.69,69.09-13.69,61.95,0,120.12,25.51,163.81,63,53.4,45.83,78.71,116.87,78.71,192.6,0,33.29-2.83,66.89-18.42,94.15C485.13,421,423.84,365.8,401.55,424.57Z"/><path class="cls-1" d="M212.11,312.66A32.62,32.62,0,0,0,244.72,280c0-18,0-113.34-32.61-113.34S179.5,262,179.5,280A32.62,32.62,0,0,0,212.11,312.66Z"/><path class="cls-1" d="M356.16,312.66A32.62,32.62,0,0,0,388.77,280c0-18,0-113.34-32.61-113.34S323.55,262,323.55,280A32.62,32.62,0,0,0,356.16,312.66Z"/><path class="cls-1" d="M402.71,335c-21.85,22.06-61.68,40-117.87,40-46.4,0-85-14.37-117.34-39.5-16-12.45-30.25,4.9-17.35,18.66,22.36,23.86,68.6,71.08,134.69,71.08s113.43-46.23,134.69-71.08C432.49,339.05,418.66,318.93,402.71,335Z"/></g></g></svg>