<svg xmlns="http://www.w3.org/2000/svg" viewBox="0 0 558.55 689.42"><defs><style>.cls-1{fill:#ec008c;}</style></defs><title>Asset 17</title><g id="Layer_2" data-name="Layer 2"><g id="Layer_1-2" data-name="Layer 1"><path class="cls-1" d="M475.68,81.61A278.65,278.65,0,0,0,0,278.64c0,21.53,1,42.46,4.62,63.16,2.16,12.53,4.26,27.62,5.48,36.67C14.27,415.2,5,463.37,24,472c10.37,4.72,12.38-11.87,20.1-8.41,11.73,6.47,10.51,26.22,13.14,56.8C64,598.31,69.72,654.49,83.86,675c44.83,65,71.33-110.9,119-99a279.88,279.88,0,0,0,75.82,10.39c19.24,0,37.33-2,54.62-3.83,24.33-2.62,28.64,37.53,59.54,33.94,43.63-5.08,30.07-54.83,61.44-88,10.57-11.15,25.34-23.06,35.34-35.15,50.51-61.08,69-120.86,69-209.68C558.55,209.27,528.3,134.24,475.68,81.61ZM387,416.15c-16,28.74,18.44,70.36-20.5,89.55-26.26,12.94-56.87,16.55-87.86,16.55-134.39,0-243.73-109.34-243.73-243.73a261.26,261.26,0,0,1,5.79-52.77c2.79-13.53,23.94-28,37.07-2.1,14.59,28.77,32.18,65.76,53.68,52,22.16-14.21,36.07-209.86,86.75-233.26C236.32,34,264.78,29,285.64,29c60.47,0,117.25,24.9,159.9,61.49,52.14,44.74,76.84,114.09,76.84,188,0,32.49-2.77,65.29-18,91.89C478.45,415.76,418.15,360.19,387,416.15Z"/><path class="cls-1" d="M210.75,310.65a32.4,32.4,0,0,0,32.4-32.4c0-17.9,0-112.62-32.4-112.62s-32.4,94.72-32.4,112.62A32.4,32.4,0,0,0,210.75,310.65Z"/><path class="cls-1" d="M353.87,310.65a32.41,32.41,0,0,0,32.41-32.4c0-17.9,0-112.62-32.41-112.62s-32.4,94.72-32.4,112.62A32.41,32.41,0,0,0,353.87,310.65Z"/><path class="cls-1" d="M396.87,317.61c-21.65,19.22-75.35,46.05-121.44,46.17h0c-46.1-.12-99.79-26.95-121.44-46.17-13.93-12.36-22.37.89-13.65,20.41C154,368.57,201.16,435.2,275.42,435.2S396.87,368.57,410.52,338C419.24,318.5,410.8,305.25,396.87,317.61Z"/></g></g></svg>